<svg width="20" height="20" viewBox="0 0 20 20" fill="none" xmlns="http://www.w3.org/2000/svg">
<g id="UI icon/briefcase/light">
<path id="Union" fill-rule="evenodd" clip-rule="evenodd" d="M6.87123 3.23754L6.49984 4.16602H4.1665C2.78579 4.16602 1.6665 5.2853 1.6665 6.66602V15.8327C1.6665 17.2134 2.78579 18.3327 4.1665 18.3327H15.8332C17.2139 18.3327 18.3332 17.2134 18.3332 15.8327V6.66602C18.3332 5.2853 17.2139 4.16602 15.8332 4.16602H13.4998L13.1284 3.23754C12.7488 2.28839 11.8295 1.66602 10.8073 1.66602H9.19242C8.17016 1.66602 7.25089 2.28839 6.87123 3.23754ZM10.8073 3.33268H9.19242C8.85167 3.33268 8.54524 3.54014 8.41869 3.85652L8.29489 4.16602H11.7048L11.581 3.85652C11.4544 3.54014 11.148 3.33268 10.8073 3.33268ZM15.8332 5.83268C16.2934 5.83268 16.6665 6.20578 16.6665 6.66602V9.16602C16.6665 9.62625 16.2934 9.99935 15.8332 9.99935H12.2769C11.9887 9.50118 11.4501 9.16602 10.8332 9.16602H9.1665C8.5496 9.16602 8.01098 9.50118 7.72281 9.99935H4.1665C3.70627 9.99935 3.33317 9.62625 3.33317 9.16602V6.66602C3.33317 6.20578 3.70627 5.83268 4.1665 5.83268H15.8332ZM7.72281 11.666H4.1665C3.87431 11.666 3.59382 11.6159 3.33317 11.5238V15.8327C3.33317 16.2929 3.70627 16.666 4.1665 16.666H15.8332C16.2934 16.666 16.6665 16.2929 16.6665 15.8327V11.5238C16.4059 11.6159 16.1254 11.666 15.8332 11.666H12.2769C11.9887 12.1642 11.4501 12.4993 10.8332 12.4993H9.1665C8.5496 12.4993 8.01098 12.1642 7.72281 11.666Z" fill="#6F767E"/>
</g>
</svg>
