<svg width="24" height="24" viewBox="0 0 24 24" fill="none" xmlns="http://www.w3.org/2000/svg">
<g id="UI icon/bank/light">
<path id="Vector 21 (Stroke)" fill-rule="evenodd" clip-rule="evenodd" d="M12.8652 4.52459C12.3181 4.26199 11.6814 4.26199 11.1343 4.52459L3.894 7.99993L3.02853 6.19689L10.2688 2.72154C11.363 2.19633 12.6365 2.19633 13.7307 2.72154L20.971 6.19689C22.8894 7.11774 22.2335 9.99993 20.1055 9.99993H3.89399C1.766 9.99993 1.11011 7.11773 3.02853 6.19689L3.894 7.99993L20.1055 7.99993L12.8652 4.52459Z" fill="#33383F"/>
<path id="Vector 13 (Stroke)" fill-rule="evenodd" clip-rule="evenodd" d="M12 11C12.5523 11 13 11.4477 13 12V18C13 18.5523 12.5523 19 12 19C11.4477 19 11 18.5523 11 18V12C11 11.4477 11.4477 11 12 11Z" fill="#33383F"/>
<path id="Vector 19 (Stroke)" fill-rule="evenodd" clip-rule="evenodd" d="M5 11C5.55228 11 6 11.4477 6 12V18C6 18.5523 5.55228 19 5 19C4.44772 19 4 18.5523 4 18V12C4 11.4477 4.44772 11 5 11Z" fill="#33383F"/>
<path id="Vector 15 (Stroke)" fill-rule="evenodd" clip-rule="evenodd" d="M19 11C19.5523 11 20 11.4477 20 12V18C20 18.5523 19.5523 19 19 19C18.4477 19 18 18.5523 18 18V12C18 11.4477 18.4477 11 19 11Z" fill="#33383F"/>
<path id="Vector 20 (Stroke)" fill-rule="evenodd" clip-rule="evenodd" d="M2 21C2 20.4477 2.44772 20 3 20H21C21.5523 20 22 20.4477 22 21C22 21.5523 21.5523 22 21 22H3C2.44772 22 2 21.5523 2 21Z" fill="#33383F"/>
</g>
</svg>
