<svg width="20" height="20" viewBox="0 0 20 20" fill="none" xmlns="http://www.w3.org/2000/svg">
<g id="UI icon/calculator/light">
<path id="Rectangle 73 (Stroke)" fill-rule="evenodd" clip-rule="evenodd" d="M14.1663 3.34245H5.83301C5.37277 3.34245 4.99967 3.71554 4.99967 4.17578V15.8424C4.99967 16.3027 5.37277 16.6758 5.83301 16.6758H14.1663C14.6266 16.6758 14.9997 16.3027 14.9997 15.8424V4.17578C14.9997 3.71554 14.6266 3.34245 14.1663 3.34245ZM5.83301 1.67578C4.4523 1.67578 3.33301 2.79507 3.33301 4.17578V15.8424C3.33301 17.2232 4.4523 18.3424 5.83301 18.3424H14.1663C15.5471 18.3424 16.6663 17.2232 16.6663 15.8424V4.17578C16.6663 2.79507 15.5471 1.67578 14.1663 1.67578H5.83301Z" fill="white"/>
<path id="Rectangle 83 (Stroke)" fill-rule="evenodd" clip-rule="evenodd" d="M6.66634 4.17578C6.2061 4.17578 5.83301 4.54888 5.83301 5.00911V6.67578C5.83301 7.13602 6.2061 7.50911 6.66634 7.50911H13.333C13.7932 7.50911 14.1663 7.13602 14.1663 6.67578V5.00911C14.1663 4.54888 13.7932 4.17578 13.333 4.17578H6.66634Z" fill="white"/>
<path id="Rectangle 84 (Stroke)" fill-rule="evenodd" clip-rule="evenodd" d="M7.08333 14.1758C6.6231 14.1758 6.25 14.5489 6.25 15.0091C6.25 15.4694 6.6231 15.8424 7.08333 15.8424H10C10.4602 15.8424 10.8333 15.4694 10.8333 15.0091C10.8333 14.5489 10.4602 14.1758 10 14.1758H7.08333Z" fill="white"/>
<path id="Ellipse 225" d="M7.91667 9.17708C7.91667 9.63732 7.54357 10.0104 7.08333 10.0104C6.6231 10.0104 6.25 9.63732 6.25 9.17708C6.25 8.71685 6.6231 8.34375 7.08333 8.34375C7.54357 8.34375 7.91667 8.71685 7.91667 9.17708Z" fill="white"/>
<path id="Ellipse 236" d="M7.91667 12.0931C7.91667 12.5533 7.54357 12.9264 7.08333 12.9264C6.6231 12.9264 6.25 12.5533 6.25 12.0931C6.25 11.6329 6.6231 11.2598 7.08333 11.2598C7.54357 11.2598 7.91667 11.6329 7.91667 12.0931Z" fill="white"/>
<path id="Ellipse 234" d="M10.8337 9.17708C10.8337 9.63732 10.4606 10.0104 10.0003 10.0104C9.54009 10.0104 9.16699 9.63732 9.16699 9.17708C9.16699 8.71685 9.54009 8.34375 10.0003 8.34375C10.4606 8.34375 10.8337 8.71685 10.8337 9.17708Z" fill="white"/>
<path id="Ellipse 237" d="M10.8337 12.0931C10.8337 12.5533 10.4606 12.9264 10.0003 12.9264C9.54009 12.9264 9.16699 12.5533 9.16699 12.0931C9.16699 11.6329 9.54009 11.2598 10.0003 11.2598C10.4606 11.2598 10.8337 11.6329 10.8337 12.0931Z" fill="white"/>
<path id="Ellipse 235" d="M13.7497 9.17708C13.7497 9.63732 13.3766 10.0104 12.9163 10.0104C12.4561 10.0104 12.083 9.63732 12.083 9.17708C12.083 8.71685 12.4561 8.34375 12.9163 8.34375C13.3766 8.34375 13.7497 8.71685 13.7497 9.17708Z" fill="white"/>
<path id="Ellipse 238" d="M13.7497 12.0931C13.7497 12.5533 13.3766 12.9264 12.9163 12.9264C12.4561 12.9264 12.083 12.5533 12.083 12.0931C12.083 11.6329 12.4561 11.2598 12.9163 11.2598C13.3766 11.2598 13.7497 11.6329 13.7497 12.0931Z" fill="white"/>
<path id="Ellipse 241" d="M13.7497 15.0091C13.7497 15.4694 13.3766 15.8424 12.9163 15.8424C12.4561 15.8424 12.083 15.4694 12.083 15.0091C12.083 14.5489 12.4561 14.1758 12.9163 14.1758C13.3766 14.1758 13.7497 14.5489 13.7497 15.0091Z" fill="white"/>
</g>
</svg>
