<svg width="24" height="25" viewBox="0 0 24 25" fill="none" xmlns="http://www.w3.org/2000/svg">
<path fill-rule="evenodd" clip-rule="evenodd" d="M7 2.01172C7.55228 2.01172 8 2.45943 8 3.01172V4.01172H16V3.01172C16 2.45943 16.4477 2.01172 17 2.01172C17.5523 2.01172 18 2.45943 18 3.01172V4.01172H19C20.6569 4.01172 22 5.35486 22 7.01172V19.0117C22 20.6686 20.6569 22.0117 19 22.0117H5C3.34315 22.0117 2 20.6686 2 19.0117V7.01172C2 5.35487 3.34315 4.01172 5 4.01172H6V3.01172C6 2.45943 6.44772 2.01172 7 2.01172ZM16 6.01172V7.01172C16 7.564 16.4477 8.01172 17 8.01172C17.5523 8.01172 18 7.564 18 7.01172V6.01172H19C19.5523 6.01172 20 6.45943 20 7.01172V10.0117H4V7.01172C4 6.45943 4.44772 6.01172 5 6.01172H6V7.01172C6 7.564 6.44772 8.01172 7 8.01172C7.55228 8.01172 8 7.564 8 7.01172V6.01172H16ZM4 12.0117V19.0117C4 19.564 4.44772 20.0117 5 20.0117H19C19.5523 20.0117 20 19.564 20 19.0117V12.0117H4Z" fill="#6F767E"/>
</svg>
