<svg width="20" height="20" viewBox="0 0 20 20" fill="none" xmlns="http://www.w3.org/2000/svg">
<g id="UI icon/clock/light">
<path id="Ellipse 134 (Stroke)" fill-rule="evenodd" clip-rule="evenodd" d="M10.0003 16.667C13.6822 16.667 16.667 13.6822 16.667 10.0003C16.667 6.31843 13.6822 3.33366 10.0003 3.33366C6.31843 3.33366 3.33366 6.31843 3.33366 10.0003C3.33366 13.6822 6.31843 16.667 10.0003 16.667ZM10.0003 18.3337C14.6027 18.3337 18.3337 14.6027 18.3337 10.0003C18.3337 5.39795 14.6027 1.66699 10.0003 1.66699C5.39795 1.66699 1.66699 5.39795 1.66699 10.0003C1.66699 14.6027 5.39795 18.3337 10.0003 18.3337Z" fill="#1A1D1F"/>
<path id="Vector 479 (Stroke)" fill-rule="evenodd" clip-rule="evenodd" d="M10.0003 5C10.4606 5 10.8337 5.3731 10.8337 5.83333V9.65482L12.6729 11.4941C12.9984 11.8195 12.9984 12.3472 12.6729 12.6726C12.3475 12.998 11.8198 12.998 11.4944 12.6726L9.65515 10.8333C9.34259 10.5208 9.16699 10.0968 9.16699 9.65482V5.83333C9.16699 5.3731 9.54009 5 10.0003 5Z" fill="#1A1D1F"/>
</g>
</svg>
