<svg width="20" height="20" viewBox="0 0 20 20" fill="none" xmlns="http://www.w3.org/2000/svg">
<g id="UI icon/close/light">
<path id="Union" d="M5.58928 4.41009C5.26384 4.08466 4.7362 4.08466 4.41076 4.41009C4.08533 4.73553 4.08533 5.26317 4.41076 5.5886L8.82152 9.99936L4.41079 14.4101C4.08535 14.7355 4.08535 15.2632 4.41079 15.5886C4.73623 15.914 5.26386 15.914 5.5893 15.5886L10 11.1779L14.4108 15.5886C14.7362 15.9141 15.2638 15.9141 15.5893 15.5886C15.9147 15.2632 15.9147 14.7355 15.5893 14.4101L11.1785 9.99936L15.5893 5.58861C15.9147 5.26317 15.9147 4.73553 15.5893 4.41009C15.2639 4.08466 14.7362 4.08466 14.4108 4.41009L10 8.82085L5.58928 4.41009Z" fill="#33383F"/>
</g>
</svg>
