<svg width="24" height="24" viewBox="0 0 24 24" fill="none" xmlns="http://www.w3.org/2000/svg">
<g id="UI icon/close/light">
<path id="Union" d="M6.70711 5.30266C6.31658 4.91213 5.68342 4.91213 5.29289 5.30266C4.90237 5.69318 4.90237 6.32635 5.29289 6.71687L10.5858 12.0098L5.29292 17.3027C4.9024 17.6932 4.9024 18.3264 5.29292 18.7169C5.68345 19.1074 6.31661 19.1074 6.70714 18.7169L12 13.424L17.2929 18.7169C17.6834 19.1074 18.3166 19.1074 18.7071 18.7169C19.0976 18.3264 19.0976 17.6932 18.7071 17.3027L13.4142 12.0098L18.7071 6.71687C19.0977 6.32635 19.0977 5.69318 18.7071 5.30266C18.3166 4.91214 17.6834 4.91214 17.2929 5.30266L12 10.5956L6.70711 5.30266Z" fill="#FF6A55"/>
</g>
</svg>
