<svg width="20" height="20" viewBox="0 0 20 20" fill="none" xmlns="http://www.w3.org/2000/svg">
<g id="UI icon/messages/light">
<path id="Subtract" d="M13.3333 5.00059C13.6624 5.00059 13.9841 4.90319 14.2578 4.72067L16.6667 3.11478V10.8339C16.6667 11.2942 16.2936 11.6673 15.8333 11.6673H15V13.3339H15.8333C17.214 13.3339 18.3333 12.2146 18.3333 10.8339V3.11478C18.3333 1.78362 16.8498 0.989637 15.7422 1.72803L13.3333 3.33392H7.5C6.11929 3.33392 5 4.45321 5 5.83392V6.66725H6.66667V5.83392C6.66667 5.37368 7.03976 5.00059 7.5 5.00059H13.3333Z" fill="#9A9FA5"/>
<path id="Rectangle 192 (Stroke)" fill-rule="evenodd" clip-rule="evenodd" d="M4.79201 15.3646C5.08753 15.1281 5.45472 14.9993 5.83317 14.9993H12.4998C12.9601 14.9993 13.3332 14.6263 13.3332 14.166V9.16602C13.3332 8.70578 12.9601 8.33268 12.4998 8.33268H4.1665C3.70627 8.33268 3.33317 8.70578 3.33317 9.16602V16.5316L4.79201 15.3646ZM5.83317 16.666H12.4998C13.8805 16.666 14.9998 15.5467 14.9998 14.166V9.16602C14.9998 7.7853 13.8805 6.66602 12.4998 6.66602H4.1665C2.78579 6.66602 1.6665 7.7853 1.6665 9.16602V16.5316C1.6665 17.9292 3.28306 18.7061 4.37433 17.8331L5.83317 16.666Z" fill="#9A9FA5"/>
<path id="Vector 409 (Stroke)" fill-rule="evenodd" clip-rule="evenodd" d="M5 11.6673C5 11.2071 5.3731 10.834 5.83333 10.834H10.8333C11.2936 10.834 11.6667 11.2071 11.6667 11.6673C11.6667 12.1276 11.2936 12.5007 10.8333 12.5007H5.83333C5.3731 12.5007 5 12.1276 5 11.6673Z" fill="#9A9FA5"/>
</g>
</svg>
