<svg width="20" height="20" viewBox="0 0 20 20" fill="none" xmlns="http://www.w3.org/2000/svg">
<g id="UI icon/tv/light">
<path id="Rectangle 188 (Stroke)" fill-rule="evenodd" clip-rule="evenodd" d="M15.8332 4.16667H4.1665C3.70627 4.16667 3.33317 4.53976 3.33317 5V12.5C3.33317 12.9602 3.70627 13.3333 4.1665 13.3333H15.8332C16.2934 13.3333 16.6665 12.9602 16.6665 12.5V5C16.6665 4.53976 16.2934 4.16667 15.8332 4.16667ZM4.1665 2.5C2.78579 2.5 1.6665 3.61929 1.6665 5V12.5C1.6665 13.8807 2.78579 15 4.1665 15H15.8332C17.2139 15 18.3332 13.8807 18.3332 12.5V5C18.3332 3.61929 17.2139 2.5 15.8332 2.5H4.1665Z" fill="#6F767E"/>
<path id="Vector 20 (Stroke)" fill-rule="evenodd" clip-rule="evenodd" d="M5.8335 16.6673C5.8335 16.2071 6.20659 15.834 6.66683 15.834H13.3335C13.7937 15.834 14.1668 16.2071 14.1668 16.6673C14.1668 17.1276 13.7937 17.5007 13.3335 17.5007H6.66683C6.20659 17.5007 5.8335 17.1276 5.8335 16.6673Z" fill="#6F767E"/>
</g>
</svg>
