<svg width="20" height="20" viewBox="0 0 20 20" fill="none" xmlns="http://www.w3.org/2000/svg">
<g id="Icons/Facebook/Line">
<path id="Vector" fill-rule="evenodd" clip-rule="evenodd" d="M9.99984 16.666C13.6818 16.666 16.6665 13.6813 16.6665 9.99935C16.6665 6.31745 13.6818 3.33268 9.99984 3.33268C6.31794 3.33268 3.33317 6.31745 3.33317 9.99935C3.33317 13.6813 6.31794 16.666 9.99984 16.666ZM9.99984 18.3327C14.6022 18.3327 18.3332 14.6017 18.3332 9.99935C18.3332 5.39697 14.6022 1.66602 9.99984 1.66602C5.39746 1.66602 1.6665 5.39697 1.6665 9.99935C1.6665 14.6017 5.39746 18.3327 9.99984 18.3327Z" fill="#777E91"/>
<path id="Vector_2" d="M9.99984 8.33398C9.99984 7.87375 10.3729 7.50065 10.8332 7.50065H11.6665C12.1268 7.50065 12.4998 7.12756 12.4998 6.66732C12.4998 6.20708 12.1268 5.83398 11.6665 5.83398H10.8332C9.45242 5.83398 8.33317 6.95328 8.33317 8.33398V10.0007H7.49984C7.0396 10.0007 6.6665 10.3737 6.6665 10.834C6.6665 11.2942 7.0396 11.6673 7.49984 11.6673H8.33317V16.6673C8.33317 17.1276 8.70625 17.5007 9.1665 17.5007C9.62675 17.5007 9.99984 17.1276 9.99984 16.6673V11.6673H11.6665C12.1268 11.6673 12.4998 11.2942 12.4998 10.834C12.4998 10.3737 12.1268 10.0007 11.6665 10.0007H9.99984V8.33398Z" fill="#777E91"/>
</g>
</svg>
