<svg width="20" height="20" viewBox="0 0 20 20" fill="none" xmlns="http://www.w3.org/2000/svg">
<g id="family">
<path id="Vector" d="M4.1665 4.16667C4.1665 4.60869 4.3421 5.03262 4.65466 5.34518C4.96722 5.65774 5.39114 5.83333 5.83317 5.83333C6.2752 5.83333 6.69912 5.65774 7.01168 5.34518C7.32424 5.03262 7.49984 4.60869 7.49984 4.16667C7.49984 3.72464 7.32424 3.30072 7.01168 2.98816C6.69912 2.67559 6.2752 2.5 5.83317 2.5C5.39114 2.5 4.96722 2.67559 4.65466 2.98816C4.3421 3.30072 4.1665 3.72464 4.1665 4.16667Z" stroke="#6F767E" stroke-width="2" stroke-linecap="round" stroke-linejoin="round"/>
<path id="Vector_2" d="M4.16683 18.3327V14.166L3.3335 13.3327V9.99935C3.3335 9.77834 3.42129 9.56637 3.57757 9.41009C3.73385 9.25381 3.94582 9.16602 4.16683 9.16602H7.50016C7.72118 9.16602 7.93314 9.25381 8.08942 9.41009C8.2457 9.56637 8.3335 9.77834 8.3335 9.99935V13.3327L7.50016 14.166V18.3327" stroke="#6F767E" stroke-width="2" stroke-linecap="round" stroke-linejoin="round"/>
<path id="Vector_3" d="M12.5 4.16667C12.5 4.60869 12.6756 5.03262 12.9882 5.34518C13.3007 5.65774 13.7246 5.83333 14.1667 5.83333C14.6087 5.83333 15.0326 5.65774 15.3452 5.34518C15.6577 5.03262 15.8333 4.60869 15.8333 4.16667C15.8333 3.72464 15.6577 3.30072 15.3452 2.98816C15.0326 2.67559 14.6087 2.5 14.1667 2.5C13.7246 2.5 13.3007 2.67559 12.9882 2.98816C12.6756 3.30072 12.5 3.72464 12.5 4.16667Z" stroke="#6F767E" stroke-width="2" stroke-linecap="round" stroke-linejoin="round"/>
<path id="Vector_4" d="M12.5002 18.3327V14.9993H10.8335L12.5002 9.99935C12.5002 9.77834 12.588 9.56637 12.7442 9.41009C12.9005 9.25381 13.1125 9.16602 13.3335 9.16602H15.0002C15.2212 9.16602 15.4331 9.25381 15.5894 9.41009C15.7457 9.56637 15.8335 9.77834 15.8335 9.99935L17.5002 14.9993H15.8335V18.3327" stroke="#6F767E" stroke-width="2" stroke-linecap="round" stroke-linejoin="round"/>
</g>
</svg>
