<svg width="24" height="24" viewBox="0 0 24 24" fill="none" xmlns="http://www.w3.org/2000/svg">
<g id="UI icon/group/light">
<path id="Subtract" d="M14.4995 10.9694C16.4728 10.7235 17.9998 9.04026 17.9998 7.00034C17.9998 4.96043 16.4728 3.27716 14.4995 3.03125C15.4332 4.08899 15.9998 5.4785 15.9998 7.00034C15.9998 8.52218 15.4332 9.91169 14.4995 10.9694Z" fill="#33383F"/>
<path id="Subtract_2" d="M20 20.0008C20 20.5531 20.4477 21.0008 21 21.0008C21.5523 21.0008 22 20.5531 22 20.0008V18.0008C22 15.3407 19.9227 13.1658 17.3018 13.0098C18.3539 13.9415 19.1587 15.1462 19.6055 16.5128C19.8565 16.9513 20 17.4593 20 18.0008V20.0008Z" fill="#33383F"/>
<path id="Vector 631 (Stroke)" fill-rule="evenodd" clip-rule="evenodd" d="M7 15C5.34315 15 4 16.3431 4 18V20C4 20.5523 3.55228 21 3 21C2.44772 21 2 20.5523 2 20V18C2 15.2386 4.23858 13 7 13H13C15.7614 13 18 15.2386 18 18V20C18 20.5523 17.5523 21 17 21C16.4477 21 16 20.5523 16 20V18C16 16.3431 14.6569 15 13 15H7Z" fill="#33383F"/>
<path id="Ellipse 132 (Stroke)" fill-rule="evenodd" clip-rule="evenodd" d="M10 5C8.89543 5 8 5.89543 8 7C8 8.10457 8.89543 9 10 9C11.1046 9 12 8.10457 12 7C12 5.89543 11.1046 5 10 5ZM6 7C6 4.79086 7.79086 3 10 3C12.2091 3 14 4.79086 14 7C14 9.20914 12.2091 11 10 11C7.79086 11 6 9.20914 6 7Z" fill="#33383F"/>
</g>
</svg>
