<svg width="24" height="24" viewBox="0 0 24 24" fill="none" xmlns="http://www.w3.org/2000/svg">
<g id="UI icon/friends/light">
<path id="Subtract" d="M16.4995 10.9111C18.2097 10.698 19.5331 9.23911 19.5331 7.47117C19.5331 5.70322 18.2097 4.24437 16.4995 4.03125C17.3088 4.94797 17.7998 6.15222 17.7998 7.47117C17.7998 8.79011 17.3088 9.99436 16.4995 10.9111Z" fill="#33383F"/>
<path id="Subtract_2" d="M7.50049 10.9111C5.79027 10.698 4.46685 9.23911 4.46685 7.47117C4.46685 5.70322 5.79027 4.24437 7.50049 4.03125C6.69125 4.94797 6.2002 6.15222 6.2002 7.47117C6.2002 8.79011 6.69125 9.99436 7.50049 10.9111Z" fill="#33383F"/>
<path id="Subtract_3" d="M21.2667 18.7367C21.2667 19.2154 21.6547 19.6034 22.1334 19.6034C22.612 19.6034 23.0001 19.2154 23.0001 18.7367V17.0033C23.0001 14.6979 21.1997 12.813 18.9282 12.6777C19.8401 13.4853 20.5376 14.5293 20.9248 15.7137C21.1424 16.0938 21.2667 16.5341 21.2667 17.0033V18.7367Z" fill="#33383F"/>
<path id="Subtract_4" d="M2.7333 18.7367C2.7333 19.2154 2.34527 19.6034 1.86662 19.6034C1.38797 19.6034 0.999944 19.2154 0.999944 18.7367V17.0033C0.999944 14.6979 2.8003 12.813 5.07178 12.6777C4.15994 13.4853 3.46237 14.5293 3.07515 15.7137C2.85763 16.0938 2.7333 16.5341 2.7333 17.0033V18.7367Z" fill="#33383F"/>
<path id="Vector 631 (Stroke)" fill-rule="evenodd" clip-rule="evenodd" d="M9 15C7.34315 15 6 16.3431 6 18V20C6 20.5523 5.55228 21 5 21C4.44772 21 4 20.5523 4 20V18C4 15.2386 6.23858 13 9 13H15C17.7614 13 20 15.2386 20 18V20C20 20.5523 19.5523 21 19 21C18.4477 21 18 20.5523 18 20V18C18 16.3431 16.6569 15 15 15H9Z" fill="#33383F"/>
<path id="Ellipse 132 (Stroke)" fill-rule="evenodd" clip-rule="evenodd" d="M12 5C10.8954 5 10 5.89543 10 7C10 8.10457 10.8954 9 12 9C13.1046 9 14 8.10457 14 7C14 5.89543 13.1046 5 12 5ZM8 7C8 4.79086 9.79086 3 12 3C14.2091 3 16 4.79086 16 7C16 9.20914 14.2091 11 12 11C9.79086 11 8 9.20914 8 7Z" fill="#33383F"/>
</g>
</svg>
