<svg width="24" height="24" viewBox="0 0 24 24" fill="none" xmlns="http://www.w3.org/2000/svg">
<g id="UI icon/home/light">
<path id="Union" fill-rule="evenodd" clip-rule="evenodd" d="M5 22.0088C3.34315 22.0088 2 20.6657 2 19.0088V11.3449C2 10.4945 2.36096 9.68397 2.99311 9.11504L9.9931 2.81504C11.134 1.78822 12.866 1.78822 14.0069 2.81504L21.0069 9.11504C21.639 9.68397 22 10.4945 22 11.3449V19.0088C22 20.6657 20.6569 22.0088 19 22.0088H5ZM20 11.3449V19.0088C20 19.5611 19.5523 20.0088 19 20.0088H16V15.0088C16 13.352 14.6569 12.0088 13 12.0088H11C9.34315 12.0088 8 13.352 8 15.0088V20.0088H5C4.44772 20.0088 4 19.5611 4 19.0088V11.3449C4 11.0614 4.12032 10.7913 4.33104 10.6016L11.331 4.30163C11.7113 3.95935 12.2887 3.95935 12.669 4.30163L19.669 10.6016C19.8797 10.7913 20 11.0614 20 11.3449ZM10 20.0088V15.0088C10 14.4566 10.4477 14.0088 11 14.0088H13C13.5523 14.0088 14 14.4566 14 15.0088V20.0088H10Z" fill="#1A1D1F"/>
</g>
</svg>
