<svg width="17" height="16" viewBox="0 0 17 16" fill="none" xmlns="http://www.w3.org/2000/svg">
<g id="UI icon/filter/light">
<path id="Rectangle 41 (Stroke)" fill-rule="evenodd" clip-rule="evenodd" d="M7.02412 7.28361C7.34584 7.53639 7.53369 7.92288 7.53369 8.33203V12.7828L8.86702 12.3136V8.33203C8.86702 7.92288 9.05488 7.53639 9.3766 7.28361L13.2789 4.21751C13.4398 4.09112 13.5337 3.89787 13.5337 3.69329V2.66536H2.86702V3.69329C2.86702 3.89787 2.96095 4.09112 3.12181 4.21751L7.02412 7.28361ZM14.1027 5.26593L10.2004 8.33203V12.7858C10.2004 13.0687 10.0218 13.3208 9.75496 13.4147L7.0883 14.3529C6.65466 14.5055 6.20036 14.1838 6.20036 13.7241V8.33203L2.29805 5.26593C1.81547 4.88676 1.53369 4.30702 1.53369 3.69329V2.66536C1.53369 1.92898 2.13065 1.33203 2.86702 1.33203H13.5337C14.2701 1.33203 14.867 1.92898 14.867 2.66536V3.69329C14.867 4.30702 14.5852 4.88676 14.1027 5.26593Z" fill="#6F767E"/>
</g>
</svg>
