<svg width="16" height="16" viewBox="0 0 16 16" fill="none" xmlns="http://www.w3.org/2000/svg">
<g id="UI icon/info/filled">
<path id="Subtract" fill-rule="evenodd" clip-rule="evenodd" d="M14.6663 8.00065C14.6663 11.6825 11.6816 14.6673 7.99967 14.6673C4.31778 14.6673 1.33301 11.6825 1.33301 8.00065C1.33301 4.31875 4.31778 1.33398 7.99967 1.33398C11.6816 1.33398 14.6663 4.31875 14.6663 8.00065ZM7.99967 7.33398C8.36786 7.33398 8.66634 7.63246 8.66634 8.00065V11.3346C8.66634 11.7028 8.36786 12.0012 7.99967 12.0012C7.63148 12.0012 7.33301 11.7028 7.33301 11.3346V8.00065C7.33301 7.63246 7.63148 7.33398 7.99967 7.33398ZM7.99967 6.00065C8.36786 6.00065 8.66634 5.70217 8.66634 5.33398C8.66634 4.96579 8.36786 4.66732 7.99967 4.66732C7.63148 4.66732 7.33301 4.96579 7.33301 5.33398C7.33301 5.70217 7.63148 6.00065 7.99967 6.00065Z" fill="#9A9FA5"/>
</g>
</svg>
