<svg width="20" height="20" viewBox="0 0 20 20" fill="none" xmlns="http://www.w3.org/2000/svg">
<g id="Icons/Instagram/Line">
<path id="Vector" fill-rule="evenodd" clip-rule="evenodd" d="M13.3332 3.33268H6.6665C4.82555 3.33268 3.33317 4.82507 3.33317 6.66602V13.3327C3.33317 15.1736 4.82555 16.666 6.6665 16.666H13.3332C15.1741 16.666 16.6665 15.1736 16.6665 13.3327V6.66602C16.6665 4.82507 15.1741 3.33268 13.3332 3.33268ZM6.6665 1.66602C3.90508 1.66602 1.6665 3.90459 1.6665 6.66602V13.3327C1.6665 16.0941 3.90508 18.3327 6.6665 18.3327H13.3332C16.0946 18.3327 18.3332 16.0941 18.3332 13.3327V6.66602C18.3332 3.90459 16.0946 1.66602 13.3332 1.66602H6.6665Z" fill="#777E91"/>
<path id="Vector_2" d="M14.1668 6.66667C14.6271 6.66667 15.0002 6.29357 15.0002 5.83333C15.0002 5.3731 14.6271 5 14.1668 5C13.7066 5 13.3335 5.3731 13.3335 5.83333C13.3335 6.29357 13.7066 6.66667 14.1668 6.66667Z" fill="#777E91"/>
<path id="Vector_3" fill-rule="evenodd" clip-rule="evenodd" d="M14.1668 10.0007C14.1668 12.3018 12.3013 14.1673 10.0002 14.1673C7.69898 14.1673 5.8335 12.3018 5.8335 10.0007C5.8335 7.69947 7.69898 5.83398 10.0002 5.83398C12.3013 5.83398 14.1668 7.69947 14.1668 10.0007ZM12.5002 10.0007C12.5002 11.3814 11.3809 12.5007 10.0002 12.5007C8.61941 12.5007 7.50016 11.3814 7.50016 10.0007C7.50016 8.6199 8.61941 7.50065 10.0002 7.50065C11.3809 7.50065 12.5002 8.6199 12.5002 10.0007Z" fill="#777E91"/>
</g>
</svg>
