<svg width="20" height="20" viewBox="0 0 20 20" fill="none" xmlns="http://www.w3.org/2000/svg">
<g id="UI icon/italics/filled">
<path id="Union" d="M11.6842 2.5002H13.7498C14.2101 2.5002 14.5832 2.8733 14.5832 3.33354C14.5832 3.79377 14.2101 4.16687 13.7498 4.16687H12.3171L9.40048 15.8335H10.8332C11.2934 15.8335 11.6665 16.2066 11.6665 16.6669C11.6665 17.1271 11.2934 17.5002 10.8332 17.5002H8.35156C8.33975 17.5005 8.3279 17.5005 8.31603 17.5002H6.24984C5.7896 17.5002 5.4165 17.1271 5.4165 16.6669C5.4165 16.2066 5.7896 15.8335 6.24984 15.8335H7.68252L10.5992 4.16687H9.1665C8.70627 4.16687 8.33317 3.79377 8.33317 3.33354C8.33317 2.8733 8.70627 2.5002 9.1665 2.5002H11.6475C11.6597 2.49993 11.6719 2.49993 11.6842 2.5002Z" fill="#33383F"/>
</g>
</svg>
