<svg width="16" height="16" viewBox="0 0 16 16" fill="none" xmlns="http://www.w3.org/2000/svg">
<g id="UI icon/layout/light">
<path id="Union" fill-rule="evenodd" clip-rule="evenodd" d="M4 14C2.89543 14 2 13.1046 2 12V4C2 2.89543 2.89543 2 4 2H12C13.1046 2 14 2.89543 14 4V12C14 13.1046 13.1046 14 12 14H4ZM12 3.33333H4C3.63181 3.33333 3.33333 3.63181 3.33333 4V4.66667H12.6667V4C12.6667 3.63181 12.3682 3.33333 12 3.33333ZM8.66667 6H3.33333V12C3.33333 12.3682 3.63181 12.6667 4 12.6667H8.66667V6ZM10 12.6667V6H12.6667V12C12.6667 12.3682 12.3682 12.6667 12 12.6667H10Z" fill="#6F767E"/>
</g>
</svg>
