<svg width="20" height="20" viewBox="0 0 20 20" fill="none" xmlns="http://www.w3.org/2000/svg">
<g id="UI icon/heart/light">
<path id="Union (Stroke)" fill-rule="evenodd" clip-rule="evenodd" d="M8.64376 5.51133C7.42885 4.27313 5.46576 4.27313 4.25085 5.51133C3.02728 6.75835 3.02728 8.78661 4.25085 10.0336L9.40501 15.2866C9.73168 15.6195 10.268 15.6195 10.5947 15.2866L15.7488 10.0336C16.9724 8.78661 16.9724 6.75835 15.7488 5.51133C14.5339 4.27313 12.5708 4.27313 11.3559 5.51133L10.5947 6.28718C10.4379 6.4469 10.2236 6.53688 9.99984 6.53688C9.77608 6.53688 9.56172 6.4469 9.40501 6.28718L8.64376 5.51133ZM9.8334 4.34406L9.99984 4.51369L10.1663 4.34406C12.0345 2.44 15.0702 2.44 16.9385 4.34406C18.7981 6.2393 18.7981 9.30566 16.9385 11.2009L11.7843 16.4539C10.8043 17.4527 9.19537 17.4527 8.21537 16.4539L3.0612 11.2009C1.20161 9.30566 1.20161 6.2393 3.0612 4.34406C4.92945 2.44 7.96515 2.44 9.8334 4.34406Z" fill="#9A9FA5"/>
</g>
</svg>
