<svg width="16" height="16" viewBox="0 0 16 16" fill="none" xmlns="http://www.w3.org/2000/svg">
<g id="UI icon/location/light">
<path id="Union (Stroke)" fill-rule="evenodd" clip-rule="evenodd" d="M11.1405 9.20437C11.6928 8.51535 12.0223 7.64323 12.0223 6.69051C12.0223 4.46856 10.221 2.66732 7.9991 2.66732C5.77715 2.66732 3.97591 4.46856 3.97591 6.69051C3.97591 7.64315 4.30535 8.51519 4.8576 9.20419L4.86157 9.20913C4.97849 9.35481 5.08674 9.50817 5.1992 9.65727C5.39452 9.91623 5.66996 10.2799 5.98998 10.6981C6.58634 11.4775 7.33131 12.4383 7.99957 13.2632C8.66994 12.4366 9.4166 11.4743 10.0141 10.6939C10.3347 10.2751 10.6106 9.91113 10.8062 9.65195C10.9181 9.50368 11.0243 9.34928 11.1405 9.20437ZM12.1827 10.0399C12.1827 10.0399 12.1816 10.0414 12.1808 10.0425C12.1466 10.0881 11.8331 10.507 11.3789 11.1036C10.7049 11.9886 9.72118 13.2647 8.88009 14.2935C8.41999 14.8563 7.57838 14.8561 7.11855 14.2931C5.68099 12.533 3.82175 10.0437 3.82175 10.0437L3.81742 10.0383C3.08229 9.1213 2.64258 7.95725 2.64258 6.69051C2.64258 3.73218 5.04077 1.33398 7.9991 1.33398C10.9574 1.33398 13.3556 3.73218 13.3556 6.69051C13.3556 7.47867 13.1854 8.22708 12.8797 8.90096C12.6948 9.30863 12.4603 9.68903 12.1839 10.0345L12.1819 10.0369L12.1808 10.0383H12.1839L12.1827 10.0399Z" fill="#6F767E"/>
<path id="Oval (Stroke)" fill-rule="evenodd" clip-rule="evenodd" d="M8 7.33268C8.36819 7.33268 8.66667 7.03421 8.66667 6.66602C8.66667 6.29783 8.36819 5.99935 8 5.99935C7.63181 5.99935 7.33333 6.29783 7.33333 6.66602C7.33333 7.03421 7.63181 7.33268 8 7.33268ZM10 6.66602C10 7.77059 9.10457 8.66602 8 8.66602C6.89543 8.66602 6 7.77059 6 6.66602C6 5.56145 6.89543 4.66602 8 4.66602C9.10457 4.66602 10 5.56145 10 6.66602Z" fill="#6F767E"/>
</g>
</svg>
