<svg width="24" height="24" viewBox="0 0 24 24" fill="none" xmlns="http://www.w3.org/2000/svg">
<g id="UI icon/logout/light">
<path id="Union" d="M17.7071 7.80266C17.3166 7.41213 16.6834 7.41213 16.2929 7.80266C15.9024 8.19318 15.9024 8.82635 16.2929 9.21687L18.0858 11.0098H9C8.44772 11.0098 8 11.4575 8 12.0098C8 12.5621 8.44772 13.0098 9 13.0098H18.0858L16.2929 14.8027C15.9024 15.1932 15.9024 15.8263 16.2929 16.2169C16.6834 16.6074 17.3166 16.6074 17.7071 16.2169L20.5 13.424C21.2811 12.6429 21.281 11.3766 20.5 10.5956L17.7071 7.80266Z" fill="#33383F"/>
<path id="Vector 587 (Stroke)" fill-rule="evenodd" clip-rule="evenodd" d="M3 5.00977C3 3.35291 4.34315 2.00977 6 2.00977H12C13.6569 2.00977 15 3.35291 15 5.00977V6.00977C15 6.56205 14.5523 7.00977 14 7.00977C13.4477 7.00977 13 6.56205 13 6.00977V5.00977C13 4.45748 12.5523 4.00977 12 4.00977H6C5.44772 4.00977 5 4.45748 5 5.00977V19.0098C5 19.562 5.44772 20.0098 6 20.0098H12C12.5523 20.0098 13 19.562 13 19.0098V18.0098C13 17.4575 13.4477 17.0098 14 17.0098C14.5523 17.0098 15 17.4575 15 18.0098V19.0098C15 20.6666 13.6569 22.0098 12 22.0098H6C4.34315 22.0098 3 20.6666 3 19.0098V5.00977Z" fill="#33383F"/>
</g>
</svg>
