<svg width="20" height="20" viewBox="0 0 20 20" fill="none" xmlns="http://www.w3.org/2000/svg">
<g id="UI icon/window/light">
<path id="Union" fill-rule="evenodd" clip-rule="evenodd" d="M1.6665 4.16602C1.6665 2.7853 2.78579 1.66602 4.1665 1.66602H15.8332C17.2139 1.66602 18.3332 2.7853 18.3332 4.16602V15.8327C18.3332 17.2134 17.2139 18.3327 15.8332 18.3327H4.1665C2.78579 18.3327 1.6665 17.2134 1.6665 15.8327V4.16602ZM4.1665 3.33268H15.8332C16.2934 3.33268 16.6665 3.70578 16.6665 4.16602V6.66602H3.33317V4.16602C3.33317 3.70578 3.70627 3.33268 4.1665 3.33268ZM16.6665 8.33268V15.8327C16.6665 16.2929 16.2934 16.666 15.8332 16.666H4.1665C3.70627 16.666 3.33317 16.2929 3.33317 15.8327V8.33268H16.6665Z" fill="#6F767E"/>
<path id="Ellipse 201" d="M5.83317 4.99935C5.83317 5.45959 5.46007 5.83268 4.99984 5.83268C4.5396 5.83268 4.1665 5.45959 4.1665 4.99935C4.1665 4.53911 4.5396 4.16602 4.99984 4.16602C5.46007 4.16602 5.83317 4.53911 5.83317 4.99935Z" fill="#6F767E"/>
<path id="Ellipse 202" d="M8.33317 4.99935C8.33317 5.45959 7.96007 5.83268 7.49984 5.83268C7.0396 5.83268 6.6665 5.45959 6.6665 4.99935C6.6665 4.53911 7.0396 4.16602 7.49984 4.16602C7.96007 4.16602 8.33317 4.53911 8.33317 4.99935Z" fill="#6F767E"/>
<path id="Ellipse 203" d="M10.8332 4.99935C10.8332 5.45959 10.4601 5.83268 9.99984 5.83268C9.5396 5.83268 9.1665 5.45959 9.1665 4.99935C9.1665 4.53911 9.5396 4.16602 9.99984 4.16602C10.4601 4.16602 10.8332 4.53911 10.8332 4.99935Z" fill="#6F767E"/>
</g>
</svg>
