<svg width="24" height="25" viewBox="0 0 24 25" fill="none" xmlns="http://www.w3.org/2000/svg">
<g id="UI icon/more_horizontal/filled">
<path id="Ellipse 31" d="M8 12.5C8 13.6046 7.10457 14.5 6 14.5C4.89543 14.5 4 13.6046 4 12.5C4 11.3954 4.89543 10.5 6 10.5C7.10457 10.5 8 11.3954 8 12.5Z" fill="#1A1D1F"/>
<path id="Ellipse 32" d="M14 12.5C14 13.6046 13.1046 14.5 12 14.5C10.8954 14.5 10 13.6046 10 12.5C10 11.3954 10.8954 10.5 12 10.5C13.1046 10.5 14 11.3954 14 12.5Z" fill="#1A1D1F"/>
<path id="Ellipse 33" d="M20 12.5C20 13.6046 19.1046 14.5 18 14.5C16.8954 14.5 16 13.6046 16 12.5C16 11.3954 16.8954 10.5 18 10.5C19.1046 10.5 20 11.3954 20 12.5Z" fill="#1A1D1F"/>
</g>
</svg>
