<svg width="16" height="16" viewBox="0 0 16 16" fill="none" xmlns="http://www.w3.org/2000/svg">
<g id="icons/Pencil/Line">
<path id="Shape" fill-rule="evenodd" clip-rule="evenodd" d="M1.34834 12.2654L1.83144 10.0915C1.94146 9.59638 2.19038 9.14294 2.54899 8.78432L9.11428 2.21904C10.1557 1.17764 11.8441 1.17764 12.8855 2.21904L13.7809 3.11447C14.8223 4.15587 14.8223 5.8443 13.7809 6.8857L7.21566 13.451C6.85704 13.8096 6.4036 14.0585 5.90852 14.1685L3.73458 14.6516C2.30558 14.9692 1.03079 13.6944 1.34834 12.2654ZM3.13303 10.3807L2.64993 12.5546C2.54408 13.031 2.96901 13.4559 3.44534 13.3501L5.61928 12.867C5.85735 12.8141 6.07616 12.6969 6.25206 12.5285L3.47146 9.74792C3.30307 9.92382 3.18593 10.1426 3.13303 10.3807ZM4.41404 8.80489L7.19509 11.5859L10.9189 7.86208L8.1379 5.08103L4.41404 8.80489ZM12.8381 5.94289L11.8618 6.91927L9.08071 4.13822L10.0571 3.16185C10.5778 2.64115 11.422 2.64115 11.9427 3.16184L12.8381 4.05728C13.3588 4.57797 13.3588 5.42219 12.8381 5.94289Z" fill="#FCFCFD"/>
</g>
</svg>
