<svg width="24" height="24" viewBox="0 0 24 24" fill="none" xmlns="http://www.w3.org/2000/svg">
<g id="UI icon/edit/light">
<path id="Union" fill-rule="evenodd" clip-rule="evenodd" d="M14.5355 3.80837C15.7071 2.63679 17.6066 2.63679 18.7782 3.80837L20.1924 5.22258C21.364 6.39415 21.364 8.29365 20.1924 9.46522L9.79987 19.8577C9.66027 19.9973 9.48247 20.0925 9.28888 20.1312L3.98558 21.1919C3.28586 21.3318 2.66894 20.7149 2.80889 20.0152L3.86955 14.7119C3.90826 14.5183 4.00342 14.3405 4.14302 14.2009L14.5355 3.80837ZM17.364 5.22258L18.7782 6.63679C19.1687 7.02732 19.1687 7.66048 18.7782 8.05101L17.3639 9.46523L14.5355 6.6368L15.9497 5.22258C16.3403 4.83206 16.9734 4.83206 17.364 5.22258ZM13.1213 8.05101L5.77133 15.401L5.06422 18.9365L8.59975 18.2294L15.9497 10.8794L13.1213 8.05101Z" fill="#FFD166"/>
</g>
</svg>
