<svg width="24" height="24" viewBox="0 0 24 24" fill="none" xmlns="http://www.w3.org/2000/svg">
<g id="UI icon/phone/light">
<path id="Rectangle 159 (Stroke)" fill-rule="evenodd" clip-rule="evenodd" d="M8.32485 6.99451L6.81721 4.93864C6.71469 4.79884 6.52094 4.7632 6.37539 4.85739C4.40296 6.13366 3.86077 8.08326 4.6521 9.52046C5.51752 11.0922 6.85229 13.0198 8.89965 15.0672C10.947 17.1146 12.8746 18.4493 14.4464 19.3147C15.8836 20.1061 17.8332 19.5639 19.1095 17.5915C19.2036 17.4459 19.168 17.2522 19.0282 17.1496L16.9723 15.642C16.67 15.4203 16.2691 15.3863 15.9338 15.554L15.1143 15.9637C14.4173 16.3122 13.4619 16.4346 12.5575 15.9693C11.9528 15.6583 11.0209 15.0671 9.96031 14.0065C8.89976 12.946 8.30859 12.014 7.99752 11.4094C7.53222 10.5049 7.65465 9.54951 8.00314 8.85254L8.41287 8.03308C8.58053 7.69776 8.54655 7.29683 8.32485 6.99451ZM5.28888 3.17825C2.74837 4.82211 1.44061 7.83439 2.90011 10.4851C3.85264 12.2151 5.29947 14.2954 7.48544 16.4814C9.6714 18.6674 11.7518 20.1142 13.4817 21.0667C16.1325 22.5262 19.1447 21.2185 20.7886 18.678C21.4582 17.6431 21.2049 16.2657 20.2109 15.5368L18.1551 14.0292C17.2481 13.3641 16.0453 13.2621 15.0393 13.7651L14.2199 14.1748C13.9827 14.2935 13.7083 14.3122 13.4724 14.1909C13.0428 13.9698 12.2813 13.4991 11.3745 12.5923C10.4677 11.6855 9.99701 10.9241 9.77596 10.4944C9.65463 10.2586 9.67339 9.98418 9.792 9.74696L10.2017 8.92751C10.7047 7.92154 10.6028 6.71875 9.93766 5.81178L8.43002 3.75591C7.70113 2.76197 6.32371 2.50866 5.28888 3.17825Z" fill="#6F767E"/>
</g>
</svg>
