<svg width="25" height="24" viewBox="0 0 25 24" fill="none" xmlns="http://www.w3.org/2000/svg">
<g id="UI icon/camera/light">
<path id="Oval (Stroke)" fill-rule="evenodd" clip-rule="evenodd" d="M12.5 14C13.6046 14 14.5 13.1046 14.5 12C14.5 10.8954 13.6046 10 12.5 10C11.3954 10 10.5 10.8954 10.5 12C10.5 13.1046 11.3954 14 12.5 14ZM16.5 12C16.5 14.2091 14.7091 16 12.5 16C10.2909 16 8.5 14.2091 8.5 12C8.5 9.79086 10.2909 8 12.5 8C14.7091 8 16.5 9.79086 16.5 12Z" fill="#6F767E"/>
<path id="Rectangle 209 (Stroke)" fill-rule="evenodd" clip-rule="evenodd" d="M17.5 6C16.7425 6 16.0499 5.572 15.7111 4.89443L15.5403 4.55279C15.3709 4.214 15.0247 4 14.6459 4H10.3541C9.97533 4 9.62907 4.214 9.45967 4.55279L9.28885 4.89443C8.95007 5.572 8.25754 6 7.5 6H5.5C4.94772 6 4.5 6.44772 4.5 7V17C4.5 17.5523 4.94772 18 5.5 18H19.5C20.0523 18 20.5 17.5523 20.5 17V7C20.5 6.44772 20.0523 6 19.5 6H17.5ZM17.5 4L17.3292 3.65836C16.821 2.64201 15.7822 2 14.6459 2H10.3541C9.21779 2 8.179 2.64201 7.67082 3.65836L7.5 4H5.5C3.84315 4 2.5 5.34315 2.5 7V17C2.5 18.6569 3.84315 20 5.5 20H19.5C21.1569 20 22.5 18.6569 22.5 17V7C22.5 5.34315 21.1569 4 19.5 4H17.5Z" fill="#6F767E"/>
<path id="Ellipse 169" d="M19 8.5C19 9.05228 18.5523 9.5 18 9.5C17.4477 9.5 17 9.05228 17 8.5C17 7.94772 17.4477 7.5 18 7.5C18.5523 7.5 19 7.94772 19 8.5Z" fill="#6F767E"/>
</g>
</svg>
