<svg width="20" height="20" viewBox="0 0 20 20" fill="none" xmlns="http://www.w3.org/2000/svg">
<g id="UI icon/repeat/light">
<path id="Union" d="M13.5059 2.32807C13.1805 2.00263 12.6529 2.00262 12.3274 2.32806C12.002 2.65349 12.002 3.18113 12.3274 3.50657L12.9849 4.16411H8.33333C5.11167 4.16411 2.5 6.77579 2.5 9.99745V10.8308C2.5 11.291 2.8731 11.6641 3.33333 11.6641C3.79357 11.6641 4.16667 11.291 4.16667 10.8308V9.99745C4.16667 7.69626 6.03215 5.83078 8.33333 5.83078H12.9889L12.3274 6.49225C12.002 6.81769 12.002 7.34533 12.3274 7.67077C12.6529 7.9962 13.1805 7.99619 13.5059 7.67075L15.2934 5.88328C15.7815 5.39513 15.7815 4.60368 15.2934 4.11553L13.5059 2.32807Z" fill="#9A9FA5"/>
<path id="Union_2" d="M11.6655 15.834C14.8872 15.834 17.4988 13.2223 17.4988 10.0007V9.16732C17.4988 8.70708 17.1257 8.33398 16.6655 8.33398C16.2053 8.33398 15.8322 8.70708 15.8322 9.16732V10.0007C15.8322 12.3018 13.9667 14.1673 11.6655 14.1673H7.00991L7.67143 13.5058C7.99686 13.1804 7.99686 12.6527 7.67142 12.3273C7.34598 12.0018 6.81834 12.0019 6.4929 12.3273L4.70546 14.1148C4.21732 14.6029 4.21732 15.3944 4.70547 15.8825L6.49291 17.67C6.81834 17.9954 7.34598 17.9954 7.67142 17.67C7.99686 17.3446 7.99686 16.8169 7.67143 16.4915L7.01394 15.834H11.6655Z" fill="#9A9FA5"/>
</g>
</svg>
