<svg width="24" height="24" viewBox="0 0 24 24" fill="none" xmlns="http://www.w3.org/2000/svg">
<g id="UI icon/share/light">
<path id="Subtract" d="M13.1636 7.14453C13.3581 7.80262 13.7174 8.39001 14.1935 8.85897L10.8366 10.8732C10.6421 10.2151 10.2828 9.62768 9.80664 9.15873L13.1636 7.14453Z" fill="#6F767E"/>
<path id="Subtract_2" d="M9.80664 14.859L13.1636 16.8731C13.3581 16.2151 13.7173 15.6277 14.1935 15.1587L10.8366 13.1445C10.6421 13.8026 10.2828 14.39 9.80664 14.859Z" fill="#6F767E"/>
<path id="Oval (Stroke)" fill-rule="evenodd" clip-rule="evenodd" d="M17 8.00977C18.1046 8.00977 19 7.11434 19 6.00977C19 4.9052 18.1046 4.00977 17 4.00977C15.8954 4.00977 15 4.9052 15 6.00977C15 7.11434 15.8954 8.00977 17 8.00977ZM21 6.00977C21 8.2189 19.2091 10.0098 17 10.0098C14.7909 10.0098 13 8.2189 13 6.00977C13 3.80063 14.7909 2.00977 17 2.00977C19.2091 2.00977 21 3.80063 21 6.00977Z" fill="#6F767E"/>
<path id="Oval Copy 7 (Stroke)" fill-rule="evenodd" clip-rule="evenodd" d="M17 20.0098C18.1046 20.0098 19 19.1143 19 18.0098C19 16.9052 18.1046 16.0098 17 16.0098C15.8954 16.0098 15 16.9052 15 18.0098C15 19.1143 15.8954 20.0098 17 20.0098ZM21 18.0098C21 20.2189 19.2091 22.0098 17 22.0098C14.7909 22.0098 13 20.2189 13 18.0098C13 15.8006 14.7909 14.0098 17 14.0098C19.2091 14.0098 21 15.8006 21 18.0098Z" fill="#6F767E"/>
<path id="Oval Copy 8 (Stroke)" fill-rule="evenodd" clip-rule="evenodd" d="M7 14.0098C8.10457 14.0098 9 13.1143 9 12.0098C9 10.9052 8.10457 10.0098 7 10.0098C5.89543 10.0098 5 10.9052 5 12.0098C5 13.1143 5.89543 14.0098 7 14.0098ZM11 12.0098C11 14.2189 9.20914 16.0098 7 16.0098C4.79086 16.0098 3 14.2189 3 12.0098C3 9.80063 4.79086 8.00977 7 8.00977C9.20914 8.00977 11 9.80063 11 12.0098Z" fill="#6F767E"/>
</g>
</svg>
