<svg width="20" height="20" viewBox="0 0 20 20" fill="none" xmlns="http://www.w3.org/2000/svg">
<g id="UI icon/smile/light">
<path id="Ellipse 201 (Stroke)" fill-rule="evenodd" clip-rule="evenodd" d="M9.99984 16.666C13.6817 16.666 16.6665 13.6812 16.6665 9.99935C16.6665 6.31745 13.6817 3.33268 9.99984 3.33268C6.31794 3.33268 3.33317 6.31745 3.33317 9.99935C3.33317 13.6812 6.31794 16.666 9.99984 16.666ZM9.99984 18.3327C14.6022 18.3327 18.3332 14.6017 18.3332 9.99935C18.3332 5.39698 14.6022 1.66602 9.99984 1.66602C5.39746 1.66602 1.6665 5.39698 1.6665 9.99935C1.6665 14.6017 5.39746 18.3327 9.99984 18.3327Z" fill="#33383F"/>
<path id="Ellipse 204 (Stroke)" fill-rule="evenodd" clip-rule="evenodd" d="M5.84658 10.9039C6.26832 10.7196 6.75959 10.9121 6.94385 11.3339C7.45898 12.5129 8.6346 13.3342 10.0002 13.3342C11.3658 13.3342 12.5414 12.5129 13.0565 11.3339C13.2408 10.9121 13.7321 10.7196 14.1538 10.9039C14.5755 11.0882 14.768 11.5794 14.5838 12.0012C13.813 13.7653 12.0518 15.0009 10.0002 15.0009C7.94857 15.0009 6.18739 13.7653 5.4166 12.0012C5.23233 11.5794 5.42484 11.0882 5.84658 10.9039Z" fill="#33383F"/>
<path id="Ellipse 202" d="M7.50016 7.49935C7.50016 7.95959 7.12707 8.33268 6.66683 8.33268C6.20659 8.33268 5.8335 7.95959 5.8335 7.49935C5.8335 7.03911 6.20659 6.66602 6.66683 6.66602C7.12707 6.66602 7.50016 7.03911 7.50016 7.49935Z" fill="#33383F"/>
<path id="Ellipse 203" d="M14.1667 7.49935C14.1667 7.95959 13.7936 8.33268 13.3333 8.33268C12.8731 8.33268 12.5 7.95959 12.5 7.49935C12.5 7.03911 12.8731 6.66602 13.3333 6.66602C13.7936 6.66602 14.1667 7.03911 14.1667 7.49935Z" fill="#33383F"/>
</g>
</svg>
