<svg width="24" height="24" viewBox="0 0 24 24" fill="none" xmlns="http://www.w3.org/2000/svg">
<g id="UI icon/loader/light">
<path id="Vector 465 (Stroke)" fill-rule="evenodd" clip-rule="evenodd" d="M12 2C12.5523 2 13 2.44772 13 3V5C13 5.55228 12.5523 6 12 6C11.4477 6 11 5.55228 11 5V3C11 2.44772 11.4477 2 12 2Z" fill="#2A85FF"/>
<path id="Vector 466 (Stroke)" fill-rule="evenodd" clip-rule="evenodd" d="M12 18C12.5523 18 13 18.4477 13 19V21C13 21.5523 12.5523 22 12 22C11.4477 22 11 21.5523 11 21V19C11 18.4477 11.4477 18 12 18Z" fill="#2A85FF"/>
<path id="Vector 465 (Stroke)_2" fill-rule="evenodd" clip-rule="evenodd" d="M4.92891 4.92571C5.31943 4.53518 5.9526 4.53518 6.34312 4.92571L7.75734 6.33992C8.14786 6.73044 8.14786 7.36361 7.75734 7.75413C7.36681 8.14466 6.73365 8.14466 6.34312 7.75413L4.92891 6.33992C4.53838 5.94939 4.53838 5.31623 4.92891 4.92571Z" fill="#2A85FF"/>
<path id="Vector 466 (Stroke)_2" fill-rule="evenodd" clip-rule="evenodd" d="M16.2426 16.246C16.6332 15.8555 17.2663 15.8555 17.6568 16.246L19.0711 17.6602C19.4616 18.0508 19.4616 18.6839 19.0711 19.0744C18.6805 19.465 18.0474 19.465 17.6568 19.0744L16.2426 17.6602C15.8521 17.2697 15.8521 16.6365 16.2426 16.246Z" fill="#2A85FF"/>
<path id="Vector 465 (Stroke)_3" fill-rule="evenodd" clip-rule="evenodd" d="M2 12C2 11.4477 2.44772 11 3 11L5 11C5.55228 11 6 11.4477 6 12C6 12.5523 5.55228 13 5 13L3 13C2.44772 13 2 12.5523 2 12Z" fill="#2A85FF"/>
<path id="Vector 466 (Stroke)_3" fill-rule="evenodd" clip-rule="evenodd" d="M18 12C18 11.4477 18.4477 11 19 11L21 11C21.5523 11 22 11.4477 22 12C22 12.5523 21.5523 13 21 13L19 13C18.4477 13 18 12.5523 18 12Z" fill="#2A85FF"/>
<path id="Vector 465 (Stroke)_4" fill-rule="evenodd" clip-rule="evenodd" d="M4.92894 19.0741C4.53842 18.6836 4.53842 18.0505 4.92894 17.6599L6.34315 16.2457C6.73368 15.8552 7.36684 15.8552 7.75737 16.2457C8.14789 16.6362 8.14789 17.2694 7.75737 17.6599L6.34315 19.0741C5.95263 19.4647 5.31946 19.4647 4.92894 19.0741Z" fill="#2A85FF"/>
<path id="Vector 466 (Stroke)_4" fill-rule="evenodd" clip-rule="evenodd" d="M16.2427 7.75383C15.8521 7.36331 15.8521 6.73014 16.2427 6.33962L17.6569 4.9254C18.0474 4.53488 18.6806 4.53488 19.0711 4.9254C19.4616 5.31593 19.4616 5.94909 19.0711 6.33962L17.6569 7.75383C17.2664 8.14436 16.6332 8.14436 16.2427 7.75383Z" fill="#2A85FF"/>
</g>
</svg>
