<svg width="20" height="20" viewBox="0 0 20 20" fill="none" xmlns="http://www.w3.org/2000/svg">
<g id="percent">
<path id="Vector" d="M7.5 11.666L12.5 6.66602" stroke="#111315" stroke-width="2" stroke-linecap="round" stroke-linejoin="round"/>
<path id="Vector_2" d="M7.91667 7.49935C8.14679 7.49935 8.33333 7.3128 8.33333 7.08268C8.33333 6.85256 8.14679 6.66602 7.91667 6.66602C7.68655 6.66602 7.5 6.85256 7.5 7.08268C7.5 7.3128 7.68655 7.49935 7.91667 7.49935Z" fill="#111315" stroke="#111315" stroke-width="2" stroke-linecap="round" stroke-linejoin="round"/>
<path id="Vector_3" d="M12.0832 11.6673C12.3133 11.6673 12.4998 11.4808 12.4998 11.2507C12.4998 11.0205 12.3133 10.834 12.0832 10.834C11.8531 10.834 11.6665 11.0205 11.6665 11.2507C11.6665 11.4808 11.8531 11.6673 12.0832 11.6673Z" fill="#111315" stroke="#111315" stroke-width="2" stroke-linecap="round" stroke-linejoin="round"/>
<path id="Vector_4" d="M4.1665 17.5V4.16667C4.1665 3.72464 4.3421 3.30072 4.65466 2.98816C4.96722 2.67559 5.39114 2.5 5.83317 2.5H14.1665C14.6085 2.5 15.0325 2.67559 15.345 2.98816C15.6576 3.30072 15.8332 3.72464 15.8332 4.16667V17.5L13.3332 15.8333L11.6665 17.5L9.99984 15.8333L8.33317 17.5L6.6665 15.8333L4.1665 17.5Z" stroke="#111315" stroke-width="2" stroke-linecap="round" stroke-linejoin="round"/>
</g>
</svg>
