<svg width="24" height="24" viewBox="0 0 24 24" fill="none" xmlns="http://www.w3.org/2000/svg">
<g id="UI icon/ticket/light">
<path id="Subtract (Stroke)" fill-rule="evenodd" clip-rule="evenodd" d="M5 6C4.44772 6 4 6.44772 4 7V8.53552C5.19153 9.22431 6 10.5164 6 12C6 13.4836 5.19153 14.7757 4 15.4645V17C4 17.5523 4.44772 18 5 18H19C19.5523 18 20 17.5523 20 17V15.4645C18.8085 14.7757 18 13.4836 18 12C18 10.5164 18.8085 9.22431 20 8.53552V7C20 6.44772 19.5523 6 19 6H5ZM5 4C3.34315 4 2 5.34315 2 7V9C2 9.55228 2.47452 9.97928 2.95897 10.2445C3.57933 10.5841 4 11.2429 4 12C4 12.7571 3.57933 13.4159 2.95897 13.7555C2.47452 14.0207 2 14.4477 2 15V17C2 18.6569 3.34315 20 5 20H19C20.6569 20 22 18.6569 22 17V15C22 14.4477 21.5255 14.0207 21.041 13.7555C20.4207 13.4159 20 12.7571 20 12C20 11.2429 20.4207 10.5841 21.041 10.2445C21.5255 9.97928 22 9.55228 22 9V7C22 5.34315 20.6569 4 19 4H5Z" fill="#33383F"/>
<path id="Star 3 (Stroke)" fill-rule="evenodd" clip-rule="evenodd" d="M11.9999 11.1879C11.7743 11.4146 11.5137 11.6039 11.2283 11.7485C11.3742 12.0332 11.4738 12.3395 11.5231 12.6556C11.8389 12.6048 12.161 12.6048 12.4768 12.6556C12.5261 12.3395 12.6257 12.0332 12.7715 11.7485C12.4862 11.6039 12.2256 11.4146 11.9999 11.1879ZM12.9445 8.71659C12.6332 7.82103 11.3667 7.82103 11.0554 8.71659L10.8177 9.40028C10.6804 9.79535 10.3117 10.0632 9.89354 10.0717L9.16988 10.0865C8.22196 10.1058 7.83058 11.3104 8.58611 11.8832L9.16289 12.3204C9.49619 12.5731 9.63702 13.0066 9.5159 13.4069L9.3063 14.0997C9.03175 15.0072 10.0564 15.7516 10.8346 15.2101L11.4288 14.7967C11.7721 14.5578 12.2278 14.5578 12.5711 14.7967L13.1652 15.2101C13.9435 15.7516 14.9681 15.0072 14.6936 14.0997L14.484 13.4069C14.3629 13.0066 14.5037 12.5731 14.837 12.3204L15.4138 11.8832C16.1693 11.3104 15.7779 10.1058 14.83 10.0865L14.1063 10.0717C13.6882 10.0632 13.3195 9.79535 13.1822 9.40028L12.9445 8.71659Z" fill="#33383F"/>
</g>
</svg>
