<svg width="20" height="20" viewBox="0 0 20 20" fill="none" xmlns="http://www.w3.org/2000/svg">
<g id="UI icon/trash/light">
<path id="Path 38 Copy (Stroke)" fill-rule="evenodd" clip-rule="evenodd" d="M8.33333 8.33398C8.79357 8.33398 9.16667 8.70708 9.16667 9.16732V13.334C9.16667 13.7942 8.79357 14.1673 8.33333 14.1673C7.8731 14.1673 7.5 13.7942 7.5 13.334V9.16732C7.5 8.70708 7.8731 8.33398 8.33333 8.33398Z" fill="#33383F"/>
<path id="Path 38 Copy (Stroke)_2" fill-rule="evenodd" clip-rule="evenodd" d="M11.6666 8.33398C12.1269 8.33398 12.5 8.70708 12.5 9.16732V13.334C12.5 13.7942 12.1269 14.1673 11.6666 14.1673C11.2064 14.1673 10.8333 13.7942 10.8333 13.334V9.16732C10.8333 8.70708 11.2064 8.33398 11.6666 8.33398Z" fill="#33383F"/>
<path id="Union" fill-rule="evenodd" clip-rule="evenodd" d="M8.33335 1.66602C6.95264 1.66602 5.83335 2.7853 5.83335 4.16602H3.33335H2.50002C2.03978 4.16602 1.66669 4.53911 1.66669 4.99935C1.66669 5.45959 2.03978 5.83268 2.50002 5.83268H3.33335V15.8327C3.33335 17.2134 4.45264 18.3327 5.83335 18.3327H14.1667C15.5474 18.3327 16.6667 17.2134 16.6667 15.8327V5.83268H17.5C17.9603 5.83268 18.3334 5.45959 18.3334 4.99935C18.3334 4.53911 17.9603 4.16602 17.5 4.16602H16.6667H14.1667C14.1667 2.7853 13.0474 1.66602 11.6667 1.66602H8.33335ZM12.5 4.16602C12.5 3.70578 12.1269 3.33268 11.6667 3.33268H8.33335C7.87312 3.33268 7.50002 3.70578 7.50002 4.16602H12.5ZM5.83335 5.83268H5.00002V15.8327C5.00002 16.2929 5.37312 16.666 5.83335 16.666H14.1667C14.6269 16.666 15 16.2929 15 15.8327V5.83268H14.1667H5.83335Z" fill="#33383F"/>
</g>
</svg>
