<svg width="20" height="20" viewBox="0 0 20 20" fill="none" xmlns="http://www.w3.org/2000/svg">
<g id="UI icon/underline/filled">
<path id="Vector 55 (Stroke)" fill-rule="evenodd" clip-rule="evenodd" d="M4.1665 17.4993C4.1665 17.0391 4.5396 16.666 4.99984 16.666H14.9998C15.4601 16.666 15.8332 17.0391 15.8332 17.4993C15.8332 17.9596 15.4601 18.3327 14.9998 18.3327H4.99984C4.5396 18.3327 4.1665 17.9596 4.1665 17.4993Z" fill="#33383F"/>
<path id="Rectangle 31 (Stroke)" fill-rule="evenodd" clip-rule="evenodd" d="M4.99984 1.66602C5.46007 1.66602 5.83317 2.03911 5.83317 2.49935V9.16602C5.83317 11.4672 7.69865 13.3327 9.99984 13.3327C12.301 13.3327 14.1665 11.4672 14.1665 9.16602V2.49935C14.1665 2.03911 14.5396 1.66602 14.9998 1.66602C15.4601 1.66602 15.8332 2.03911 15.8332 2.49935V9.16602C15.8332 12.3877 13.2215 14.9993 9.99984 14.9993C6.77818 14.9993 4.1665 12.3877 4.1665 9.16602V2.49935C4.1665 2.03911 4.5396 1.66602 4.99984 1.66602Z" fill="#33383F"/>
</g>
</svg>
