<svg width="25" height="24" viewBox="0 0 25 24" fill="none" xmlns="http://www.w3.org/2000/svg">
<g id="UI icon/video_recorder/light">
<path id="Union" fill-rule="evenodd" clip-rule="evenodd" d="M17.5 15.4286V16C17.5 17.6569 16.1569 19 14.5 19H5.5C3.84315 19 2.5 17.6569 2.5 16V8C2.5 6.34315 3.84315 5 5.5 5H14.5C16.1569 5 17.5 6.34315 17.5 8V8.57142L19.3375 7.2589C20.6613 6.31338 22.5 7.25962 22.5 8.88637V15.1136C22.5 16.7404 20.6613 17.6866 19.3375 16.7411L17.5 15.4286ZM5.5 7H14.5C15.0523 7 15.5 7.44772 15.5 8V16C15.5 16.5523 15.0523 17 14.5 17H5.5C4.94772 17 4.5 16.5523 4.5 16V8C4.5 7.44772 4.94772 7 5.5 7ZM17.5 12.9708L20.5 15.1136V8.88637L17.5 11.0292V12.9708Z" fill="#6F767E"/>
</g>
</svg>
